<?xml version="1.0" standalone="no"?><!DOCTYPE svg PUBLIC "-//W3C//DTD SVG 1.1//EN" "http://www.w3.org/Graphics/SVG/1.1/DTD/svg11.dtd"><svg t="1608652788140" class="icon" viewBox="0 0 1024 1024" version="1.1" xmlns="http://www.w3.org/2000/svg" p-id="4026" xmlns:xlink="http://www.w3.org/1999/xlink" width="200" height="200"><defs><style type="text/css"></style></defs><path d="M699.956224 862.0032l276.992-281.7792 46.1056 46.9504-276.9408 281.7024v0.0768l-46.1056 46.9504-184.4736-187.7248 46.1312-46.9504 138.2912 140.7232v0.0512zM231.015424 614.3488h165.0176c18.2272 0 32.9984 15.2832 32.9984 34.1248 0 18.8672-14.7712 34.1504-33.024 34.1504H231.041024c-11.776 0-22.6816-6.5024-28.5696-17.0752-5.888-10.5472-5.888-23.552 0-34.1248 5.888-10.5472 16.7936-17.0496 28.5696-17.0496v-0.0256z m0-204.8h396.032c18.2272 0 33.024 15.3088 33.024 34.1504 0 18.8672-14.7968 34.1504-33.024 34.1504H231.015424c-18.2272 0-33.024-15.2832-33.024-34.1504 0-18.8416 14.7968-34.1248 33.024-34.1248z m0-204.7488h396.032c11.776 0 22.6816 6.5024 28.5696 17.0752 5.888 10.5472 5.888 23.552 0 34.0992-5.888 10.5728-16.7936 17.0752-28.5696 17.0752H231.015424c-18.2272 0-32.9984-15.2832-32.9984-34.1248S212.788224 204.8 231.041024 204.8z m495.0528-204.8c72.8832 0 131.9936 61.1328 131.9936 136.5248v409.5744H792.065024V136.5504c0-37.6832-29.5424-68.2496-65.9712-68.2496H132.020224c-36.4544 0-65.9968 30.5664-65.9968 68.2496v750.8992c0 37.7088 29.5424 68.2496 65.9968 68.2496h429.056v68.2752H131.943424a129.8432 129.8432 0 0 1-93.3376-40.0128A138.9312 138.9312 0 0 1 0.001024 887.3984V136.5504C0.001024 100.352 13.901824 65.6128 38.657024 39.9872A129.8432 129.8432 0 0 1 132.020224 0h594.048z" fill="#8a8a8a" p-id="4027"></path></svg>